<?xml version="1.0" encoding="utf-8"?>
<!-- Generator: Adobe Illustrator 19.2.1, SVG Export Plug-In . SVG Version: 6.00 Build 0)  -->
<svg version="1.1" id="Ebene_1" xmlns="http://www.w3.org/2000/svg" xmlns:xlink="http://www.w3.org/1999/xlink" x="0px" y="0px"
	 viewBox="0 0 100 100" style="enable-background:new 0 0 100 100;" xml:space="preserve">
<style type="text/css">
	.st0{fill:#333333;}
</style>
<path class="st0" d="M50,0.2C22.5,0.2,0.2,22.5,0.2,50S22.5,99.8,50,99.8S99.8,77.5,99.8,50S77.5,0.2,50,0.2z M58,81.5
	c0,2.9-0.9,5.2-2.3,6.7s-3.2,2.3-5.4,2.3c-2.1,0-3.9-0.8-5.3-2.3c-1.3-1.5-2.1-3.7-2.1-6.6v-42c0-2.9,0.7-5.1,2-6.6
	c1.3-1.5,3.1-2.2,5.2-2.2c2.1,0,4.1,0.7,5.5,2.2c1.4,1.5,2.3,3.5,2.3,6.1V81.5z M55.5,22.1c-1.4,1.3-3.1,1.9-5.1,1.9
	c-2,0-3.8-0.6-5.2-1.9c-1.5-1.3-2.2-3-2.2-5.3c0-2.1,0.7-3.8,2.2-5.1c1.5-1.3,3.2-2,5.2-2c1.9,0,3.6,0.6,5,1.8
	c1.5,1.2,2.2,3,2.2,5.3C57.7,19,57,20.8,55.5,22.1z"/>
</svg>
