<?xml version="1.0" encoding="utf-8"?>
<!-- Generator: Adobe Illustrator 16.0.0, SVG Export Plug-In . SVG Version: 6.00 Build 0)  -->
<!DOCTYPE svg PUBLIC "-//W3C//DTD SVG 1.1//EN" "http://www.w3.org/Graphics/SVG/1.1/DTD/svg11.dtd">
<svg version="1.1" id="Ebene_1" xmlns="http://www.w3.org/2000/svg" xmlns:xlink="http://www.w3.org/1999/xlink" x="0px" y="0px"
	 width="557.761px" height="560px" viewBox="201.12 0 557.761 560" enable-background="new 201.12 0 557.761 560"
	 xml:space="preserve">
<path fill="#333333" d="M480,1.12C326,1.12,201.12,126,201.12,280S326,558.88,480,558.88S758.881,434,758.881,280S634,1.12,480,1.12
	z M499.604,372.289c0,7.915-2.457,14.191-6.277,18.285c-3.821,4.093-8.732,6.276-14.736,6.276c-5.731,0-10.643-2.184-14.464-6.276
	c-3.547-4.094-5.731-10.098-5.731-18.011V257.945c0-7.914,1.91-13.918,5.458-18.011c3.548-4.094,8.46-6.004,14.191-6.004
	s11.189,1.911,15.009,6.004c3.821,4.093,6.276,9.551,6.276,16.646v115.709H499.604z M496.09,205.5
	c-4.604,4.276-10.197,6.25-16.776,6.25s-12.5-1.974-17.105-6.25c-4.933-4.276-7.236-9.868-7.236-17.433
	c0-6.908,2.303-12.5,7.236-16.776c4.935-4.277,10.527-6.579,17.105-6.579c6.25,0,11.842,1.974,16.447,5.921
	c4.935,3.948,7.236,9.868,7.236,17.435C503.326,195.303,501.024,201.224,496.09,205.5z"/>
</svg>
